<svg viewBox="0 0 65 50" fill="none" xmlns="http://www.w3.org/2000/svg" xmlns:xlink="http://www.w3.org/1999/xlink"><path id="path" d="M57.25 3.64C56.64 3.33 56.37 3.91 56.01 4.21C55.89 4.3 55.79 4.43 55.68 4.54C54.79 5.52 53.74 6.16 52.37 6.08C50.38 5.97 48.67 6.61 47.16 8.16C46.84 6.24 45.77 5.1 44.15 4.36C43.3 3.98 42.45 3.6 41.85 2.77C41.44 2.17 41.32 1.51 41.12 0.86C40.98 0.47 40.85 0.07 40.41 0C39.93 -0.07 39.74 0.34 39.55 0.68C38.8 2.09 38.5 3.64 38.53 5.2C38.6 8.73 40.06 11.54 42.96 13.54C43.29 13.76 43.38 13.99 43.27 14.33C43.08 15.02 42.84 15.68 42.63 16.37C42.5 16.81 42.3 16.91 41.84 16.72C40.25 16.04 38.87 15.04 37.65 13.82C35.59 11.79 33.72 9.54 31.39 7.78C30.85 7.37 30.3 6.99 29.73 6.63C27.36 4.28 30.05 2.35 30.67 2.12C31.32 1.88 30.89 1.06 28.79 1.06C26.69 1.07 24.77 1.79 22.31 2.75C21.96 2.89 21.58 3 21.19 3.08C18.97 2.65 16.66 2.56 14.24 2.83C9.7 3.35 6.07 5.54 3.4 9.27C0.19 13.76 -0.56 18.87 0.36 24.19C1.33 29.8 4.14 34.44 8.46 38.07C12.94 41.84 18.1 43.68 23.98 43.33C27.56 43.12 31.54 42.63 36.02 38.76C37.16 39.33 38.34 39.56 40.31 39.74C41.83 39.88 43.29 39.66 44.43 39.42C46.2 39.04 46.08 37.37 45.43 37.06C40.24 34.6 41.38 35.6 40.34 34.79C42.98 31.6 46.96 28.3 48.52 17.59C48.64 16.74 48.54 16.2 48.52 15.51C48.51 15.09 48.6 14.93 49.07 14.88C50.38 14.73 51.64 14.37 52.8 13.72C56.16 11.84 57.52 8.77 57.84 5.08C57.89 4.51 57.83 3.93 57.25 3.64ZM27.91 36.83C22.88 32.8 20.44 31.47 19.43 31.53C18.49 31.59 18.65 32.68 18.86 33.4C19.08 34.11 19.36 34.6 19.76 35.22C20.03 35.63 20.22 36.24 19.48 36.7C17.86 37.72 15.04 36.35 14.91 36.29C11.63 34.32 8.89 31.72 6.95 28.16C5.09 24.74 4 21.07 3.82 17.16C3.78 16.21 4.05 15.88 4.97 15.7C6.19 15.48 7.44 15.43 8.66 15.61C13.8 16.37 18.17 18.71 21.84 22.42C23.94 24.53 25.52 27.06 27.15 29.52C28.89 32.14 30.75 34.63 33.13 36.68C33.97 37.4 34.64 37.94 35.28 38.34C33.35 38.56 30.12 38.61 27.91 36.83ZM30.33 21.02C30.33 20.6 30.66 20.26 31.07 20.26C31.17 20.26 31.25 20.28 31.33 20.31C31.43 20.35 31.53 20.41 31.6 20.49C31.73 20.63 31.81 20.82 31.81 21.02C31.81 21.44 31.48 21.77 31.06 21.77C30.65 21.77 30.33 21.44 30.33 21.02ZM37.82 24.93C37.34 25.14 36.86 25.31 36.4 25.33C35.68 25.36 34.9 25.07 34.48 24.71C33.82 24.14 33.35 23.83 33.15 22.84C33.06 22.42 33.11 21.77 33.19 21.4C33.36 20.6 33.17 20.08 32.61 19.61C32.16 19.23 31.58 19.12 30.95 19.12C30.72 19.12 30.5 19.02 30.34 18.93C30.07 18.8 29.86 18.47 30.06 18.05C30.13 17.92 30.45 17.6 30.53 17.54C31.38 17.04 32.37 17.2 33.29 17.58C34.14 17.93 34.78 18.58 35.7 19.5C36.65 20.61 36.82 20.91 37.35 21.74C37.78 22.39 38.16 23.06 38.43 23.83C38.59 24.3 38.38 24.7 37.82 24.93Z" fill="currentColor" fill-opacity="1.000000" fill-rule="nonzero"></path></svg>
